{
    "asset" : {
        "generator" : "Khronos glTF Blender I/O v3.4.50",
        "version" : "2.0"
    },
    "scene" : 0,
    "scenes" : [
        {
            "name" : "Scene",
            "nodes" : [
                0,
                1,
                2,
                3,
                4,
                5,
                6,
                7,
                8,
                9,
                10
            ]
        }
    ],
    "nodes" : [
        {
            "mesh" : 0,
            "name" : "arch",
            "rotation" : [
                0.5,
                0.5,
                -0.5,
                0.5
            ],
            "scale" : [
                0.8999999761581421,
                34.01999282836914,
                0.8899999856948853
            ],
            "translation" : [
                -2.9822418689727783,
                1.100236415863037,
                -0.0023187845945358276
            ]
        },
        {
            "mesh" : 1,
            "name" : "curtain1",
            "rotation" : [
                0,
                0.746217668056488,
                0,
                0.6657020449638367
            ],
            "scale" : [
                0.5364320278167725,
                0.5364319682121277,
                0.5364320278167725
            ],
            "translation" : [
                -2.851914405822754,
                0.9841852188110352,
                -0.6362338066101074
            ]
        },
        {
            "mesh" : 2,
            "name" : "curtain2",
            "rotation" : [
                0,
                0.7071068286895752,
                0,
                0.7071068286895752
            ],
            "scale" : [
                0.6091110706329346,
                0.5364319682121277,
                0.5364319682121277
            ],
            "translation" : [
                -2.9057815074920654,
                0.9721230268478394,
                -0.024339210242033005
            ]
        },
        {
            "mesh" : 3,
            "name" : "curtain1.001",
            "rotation" : [
                0.746217668056488,
                0,
                -0.6657020449638367,
                0
            ],
            "scale" : [
                -0.5364320278167725,
                -0.5364319682121277,
                -0.5364320278167725
            ],
            "translation" : [
                -2.851914405822754,
                0.9841852188110352,
                0.6241974830627441
            ]
        },
        {
            "mesh" : 4,
            "name" : "lightBulb.153",
            "rotation" : [
                0,
                -0.7071068286895752,
                0,
                0.7071068286895752
            ],
            "scale" : [
                0.7499881982803345,
                0.7499881982803345,
                0.7499881982803345
            ],
            "translation" : [
                3.74051570892334,
                1.6362313032150269,
                -0.6197494864463806
            ]
        },
        {
            "mesh" : 5,
            "name" : "lightBulb.144",
            "rotation" : [
                0,
                -0.7071068286895752,
                0,
                0.7071068286895752
            ],
            "scale" : [
                0.7499881982803345,
                0.7499881982803345,
                0.7499881982803345
            ],
            "translation" : [
                2.7375049591064453,
                1.6362313032150269,
                -0.6197494864463806
            ]
        },
        {
            "mesh" : 6,
            "name" : "lightBulb.119",
            "rotation" : [
                0,
                -0.7071068286895752,
                0,
                0.7071068286895752
            ],
            "scale" : [
                0.7499881982803345,
                0.7499881982803345,
                0.7499881982803345
            ],
            "translation" : [
                1.7373720407485962,
                1.6362313032150269,
                -0.6197494864463806
            ]
        },
        {
            "mesh" : 7,
            "name" : "lightBulb.072",
            "rotation" : [
                0,
                -0.7071068286895752,
                0,
                0.7071068286895752
            ],
            "scale" : [
                0.7499881982803345,
                0.7499881982803345,
                0.7499881982803345
            ],
            "translation" : [
                0.7420932054519653,
                1.6362313032150269,
                -0.6197494864463806
            ]
        },
        {
            "mesh" : 8,
            "name" : "lightBulb.073",
            "rotation" : [
                0,
                -0.7071068286895752,
                0,
                0.7071068286895752
            ],
            "scale" : [
                0.7499881982803345,
                0.7499881982803345,
                0.7499881982803345
            ],
            "translation" : [
                -0.25703567266464233,
                1.6362313032150269,
                -0.6197494864463806
            ]
        },
        {
            "mesh" : 9,
            "name" : "lightBulb.001",
            "rotation" : [
                0,
                -0.7071068286895752,
                0,
                0.7071068286895752
            ],
            "scale" : [
                0.7499881982803345,
                0.7499881982803345,
                0.7499881982803345
            ],
            "translation" : [
                -1.2609221935272217,
                1.6362313032150269,
                -0.6197494864463806
            ]
        },
        {
            "mesh" : 10,
            "name" : "lightBulb.002",
            "rotation" : [
                0,
                -0.7071068286895752,
                0,
                0.7071068286895752
            ],
            "scale" : [
                0.7499881982803345,
                0.7499881982803345,
                0.7499881982803345
            ],
            "translation" : [
                -2.2555267810821533,
                1.6362313032150269,
                -0.6197494864463806
            ]
        }
    ],
    "meshes" : [
        {
            "name" : "Circle",
            "primitives" : [
                {
                    "attributes" : {
                        "POSITION" : 0,
                        "TEXCOORD_0" : 1,
                        "NORMAL" : 2
                    },
                    "indices" : 3
                }
            ]
        },
        {
            "name" : "curtain1",
            "primitives" : [
                {
                    "attributes" : {
                        "POSITION" : 4,
                        "NORMAL" : 5
                    },
                    "indices" : 6
                }
            ]
        },
        {
            "name" : "curtain2",
            "primitives" : [
                {
                    "attributes" : {
                        "POSITION" : 7,
                        "NORMAL" : 8
                    },
                    "indices" : 9
                }
            ]
        },
        {
            "name" : "curtain1.001",
            "primitives" : [
                {
                    "attributes" : {
                        "POSITION" : 10,
                        "NORMAL" : 11
                    },
                    "indices" : 6
                }
            ]
        },
        {
            "name" : "Lightbulb.153",
            "primitives" : [
                {
                    "attributes" : {
                        "POSITION" : 12,
                        "TEXCOORD_0" : 13,
                        "NORMAL" : 14
                    },
                    "indices" : 15
                }
            ]
        },
        {
            "name" : "Lightbulb.168",
            "primitives" : [
                {
                    "attributes" : {
                        "POSITION" : 16,
                        "TEXCOORD_0" : 17,
                        "NORMAL" : 18
                    },
                    "indices" : 15
                }
            ]
        },
        {
            "name" : "Lightbulb.169",
            "primitives" : [
                {
                    "attributes" : {
                        "POSITION" : 19,
                        "TEXCOORD_0" : 20,
                        "NORMAL" : 21
                    },
                    "indices" : 15
                }
            ]
        },
        {
            "name" : "Lightbulb.170",
            "primitives" : [
                {
                    "attributes" : {
                        "POSITION" : 22,
                        "TEXCOORD_0" : 23,
                        "NORMAL" : 24
                    },
                    "indices" : 15
                }
            ]
        },
        {
            "name" : "Lightbulb.171",
            "primitives" : [
                {
                    "attributes" : {
                        "POSITION" : 25,
                        "TEXCOORD_0" : 26,
                        "NORMAL" : 27
                    },
                    "indices" : 15
                }
            ]
        },
        {
            "name" : "Lightbulb.172",
            "primitives" : [
                {
                    "attributes" : {
                        "POSITION" : 28,
                        "TEXCOORD_0" : 29,
                        "NORMAL" : 30
                    },
                    "indices" : 15
                }
            ]
        },
        {
            "name" : "Lightbulb.173",
            "primitives" : [
                {
                    "attributes" : {
                        "POSITION" : 31,
                        "TEXCOORD_0" : 32,
                        "NORMAL" : 33
                    },
                    "indices" : 15
                }
            ]
        }
    ],
    "accessors" : [
        {
            "bufferView" : 0,
            "componentType" : 5126,
            "count" : 72,
            "max" : [
                1,
                0.2000000923871994,
                1.5
            ],
            "min" : [
                -1,
                0,
                -1
            ],
            "type" : "VEC3"
        },
        {
            "bufferView" : 1,
            "componentType" : 5126,
            "count" : 72,
            "type" : "VEC2"
        },
        {
            "bufferView" : 2,
            "componentType" : 5126,
            "count" : 72,
            "type" : "VEC3"
        },
        {
            "bufferView" : 3,
            "componentType" : 5123,
            "count" : 108,
            "type" : "SCALAR"
        },
        {
            "bufferView" : 4,
            "componentType" : 5126,
            "count" : 1651961,
            "max" : [
                0.2777290344238281,
                1.8016571998596191,
                0.15196606516838074
            ],
            "min" : [
                -0.6622161865234375,
                -1.8352293968200684,
                -0.14807364344596863
            ],
            "type" : "VEC3"
        },
        {
            "bufferView" : 5,
            "componentType" : 5126,
            "count" : 1651961,
            "type" : "VEC3"
        },
        {
            "bufferView" : 6,
            "componentType" : 5125,
            "count" : 1651968,
            "type" : "SCALAR"
        },
        {
            "bufferView" : 7,
            "componentType" : 5126,
            "count" : 743424,
            "max" : [
                1.3152961730957031,
                1.8312907218933105,
                0.09870120882987976
            ],
            "min" : [
                -1.4365272521972656,
                -1.8439254760742188,
                -0.09605424106121063
            ],
            "type" : "VEC3"
        },
        {
            "bufferView" : 8,
            "componentType" : 5126,
            "count" : 743424,
            "type" : "VEC3"
        },
        {
            "bufferView" : 9,
            "componentType" : 5125,
            "count" : 743424,
            "type" : "SCALAR"
        },
        {
            "bufferView" : 10,
            "componentType" : 5126,
            "count" : 1651961,
            "max" : [
                0.2777290344238281,
                1.8016571998596191,
                0.15196606516838074
            ],
            "min" : [
                -0.6622161865234375,
                -1.8352293968200684,
                -0.14807364344596863
            ],
            "type" : "VEC3"
        },
        {
            "bufferView" : 11,
            "componentType" : 5126,
            "count" : 1651961,
            "type" : "VEC3"
        },
        {
            "bufferView" : 12,
            "componentType" : 5126,
            "count" : 80048,
            "max" : [
                2.0232720375061035,
                0.47053229808807373,
                0.45408159494400024
            ],
            "min" : [
                -0.37676483392715454,
                -2.1961755752563477,
                0.01744573935866356
            ],
            "type" : "VEC3"
        },
        {
            "bufferView" : 13,
            "componentType" : 5126,
            "count" : 80048,
            "type" : "VEC2"
        },
        {
            "bufferView" : 14,
            "componentType" : 5126,
            "count" : 80048,
            "type" : "VEC3"
        },
        {
            "bufferView" : 15,
            "componentType" : 5125,
            "count" : 473628,
            "type" : "SCALAR"
        },
        {
            "bufferView" : 16,
            "componentType" : 5126,
            "count" : 80048,
            "max" : [
                2.0232720375061035,
                0.47053229808807373,
                0.45408159494400024
            ],
            "min" : [
                -0.37676483392715454,
                -2.1961755752563477,
                0.01744573935866356
            ],
            "type" : "VEC3"
        },
        {
            "bufferView" : 17,
            "componentType" : 5126,
            "count" : 80048,
            "type" : "VEC2"
        },
        {
            "bufferView" : 18,
            "componentType" : 5126,
            "count" : 80048,
            "type" : "VEC3"
        },
        {
            "bufferView" : 19,
            "componentType" : 5126,
            "count" : 80048,
            "max" : [
                2.0232720375061035,
                0.47053229808807373,
                0.45408159494400024
            ],
            "min" : [
                -0.37676483392715454,
                -2.1961755752563477,
                0.01744573935866356
            ],
            "type" : "VEC3"
        },
        {
            "bufferView" : 20,
            "componentType" : 5126,
            "count" : 80048,
            "type" : "VEC2"
        },
        {
            "bufferView" : 21,
            "componentType" : 5126,
            "count" : 80048,
            "type" : "VEC3"
        },
        {
            "bufferView" : 22,
            "componentType" : 5126,
            "count" : 80048,
            "max" : [
                2.0232720375061035,
                0.47053229808807373,
                0.45408159494400024
            ],
            "min" : [
                -0.37676483392715454,
                -2.1961755752563477,
                0.01744573935866356
            ],
            "type" : "VEC3"
        },
        {
            "bufferView" : 23,
            "componentType" : 5126,
            "count" : 80048,
            "type" : "VEC2"
        },
        {
            "bufferView" : 24,
            "componentType" : 5126,
            "count" : 80048,
            "type" : "VEC3"
        },
        {
            "bufferView" : 25,
            "componentType" : 5126,
            "count" : 80048,
            "max" : [
                2.0232720375061035,
                0.47053229808807373,
                0.45408159494400024
            ],
            "min" : [
                -0.37676483392715454,
                -2.1961755752563477,
                0.01744573935866356
            ],
            "type" : "VEC3"
        },
        {
            "bufferView" : 26,
            "componentType" : 5126,
            "count" : 80048,
            "type" : "VEC2"
        },
        {
            "bufferView" : 27,
            "componentType" : 5126,
            "count" : 80048,
            "type" : "VEC3"
        },
        {
            "bufferView" : 28,
            "componentType" : 5126,
            "count" : 80048,
            "max" : [
                2.0232720375061035,
                0.47053229808807373,
                0.45408159494400024
            ],
            "min" : [
                -0.37676483392715454,
                -2.1961755752563477,
                0.01744573935866356
            ],
            "type" : "VEC3"
        },
        {
            "bufferView" : 29,
            "componentType" : 5126,
            "count" : 80048,
            "type" : "VEC2"
        },
        {
            "bufferView" : 30,
            "componentType" : 5126,
            "count" : 80048,
            "type" : "VEC3"
        },
        {
            "bufferView" : 31,
            "componentType" : 5126,
            "count" : 80048,
            "max" : [
                2.0232720375061035,
                0.47053229808807373,
                0.45408159494400024
            ],
            "min" : [
                -0.37676483392715454,
                -2.1961755752563477,
                0.01744573935866356
            ],
            "type" : "VEC3"
        },
        {
            "bufferView" : 32,
            "componentType" : 5126,
            "count" : 80048,
            "type" : "VEC2"
        },
        {
            "bufferView" : 33,
            "componentType" : 5126,
            "count" : 80048,
            "type" : "VEC3"
        }
    ],
    "bufferViews" : [
        {
            "buffer" : 0,
            "byteLength" : 864,
            "byteOffset" : 0,
            "target" : 34962
        },
        {
            "buffer" : 0,
            "byteLength" : 576,
            "byteOffset" : 864,
            "target" : 34962
        },
        {
            "buffer" : 0,
            "byteLength" : 864,
            "byteOffset" : 1440,
            "target" : 34962
        },
        {
            "buffer" : 0,
            "byteLength" : 216,
            "byteOffset" : 2304,
            "target" : 34963
        },
        {
            "buffer" : 0,
            "byteLength" : 19823532,
            "byteOffset" : 2520,
            "target" : 34962
        },
        {
            "buffer" : 0,
            "byteLength" : 19823532,
            "byteOffset" : 19826052,
            "target" : 34962
        },
        {
            "buffer" : 0,
            "byteLength" : 6607872,
            "byteOffset" : 39649584,
            "target" : 34963
        },
        {
            "buffer" : 0,
            "byteLength" : 8921088,
            "byteOffset" : 46257456,
            "target" : 34962
        },
        {
            "buffer" : 0,
            "byteLength" : 8921088,
            "byteOffset" : 55178544,
            "target" : 34962
        },
        {
            "buffer" : 0,
            "byteLength" : 2973696,
            "byteOffset" : 64099632,
            "target" : 34963
        },
        {
            "buffer" : 0,
            "byteLength" : 19823532,
            "byteOffset" : 67073328,
            "target" : 34962
        },
        {
            "buffer" : 0,
            "byteLength" : 19823532,
            "byteOffset" : 86896860,
            "target" : 34962
        },
        {
            "buffer" : 0,
            "byteLength" : 960576,
            "byteOffset" : 106720392,
            "target" : 34962
        },
        {
            "buffer" : 0,
            "byteLength" : 640384,
            "byteOffset" : 107680968,
            "target" : 34962
        },
        {
            "buffer" : 0,
            "byteLength" : 960576,
            "byteOffset" : 108321352,
            "target" : 34962
        },
        {
            "buffer" : 0,
            "byteLength" : 1894512,
            "byteOffset" : 109281928,
            "target" : 34963
        },
        {
            "buffer" : 0,
            "byteLength" : 960576,
            "byteOffset" : 111176440,
            "target" : 34962
        },
        {
            "buffer" : 0,
            "byteLength" : 640384,
            "byteOffset" : 112137016,
            "target" : 34962
        },
        {
            "buffer" : 0,
            "byteLength" : 960576,
            "byteOffset" : 112777400,
            "target" : 34962
        },
        {
            "buffer" : 0,
            "byteLength" : 960576,
            "byteOffset" : 113737976,
            "target" : 34962
        },
        {
            "buffer" : 0,
            "byteLength" : 640384,
            "byteOffset" : 114698552,
            "target" : 34962
        },
        {
            "buffer" : 0,
            "byteLength" : 960576,
            "byteOffset" : 115338936,
            "target" : 34962
        },
        {
            "buffer" : 0,
            "byteLength" : 960576,
            "byteOffset" : 116299512,
            "target" : 34962
        },
        {
            "buffer" : 0,
            "byteLength" : 640384,
            "byteOffset" : 117260088,
            "target" : 34962
        },
        {
            "buffer" : 0,
            "byteLength" : 960576,
            "byteOffset" : 117900472,
            "target" : 34962
        },
        {
            "buffer" : 0,
            "byteLength" : 960576,
            "byteOffset" : 118861048,
            "target" : 34962
        },
        {
            "buffer" : 0,
            "byteLength" : 640384,
            "byteOffset" : 119821624,
            "target" : 34962
        },
        {
            "buffer" : 0,
            "byteLength" : 960576,
            "byteOffset" : 120462008,
            "target" : 34962
        },
        {
            "buffer" : 0,
            "byteLength" : 960576,
            "byteOffset" : 121422584,
            "target" : 34962
        },
        {
            "buffer" : 0,
            "byteLength" : 640384,
            "byteOffset" : 122383160,
            "target" : 34962
        },
        {
            "buffer" : 0,
            "byteLength" : 960576,
            "byteOffset" : 123023544,
            "target" : 34962
        },
        {
            "buffer" : 0,
            "byteLength" : 960576,
            "byteOffset" : 123984120,
            "target" : 34962
        },
        {
            "buffer" : 0,
            "byteLength" : 640384,
            "byteOffset" : 124944696,
            "target" : 34962
        },
        {
            "buffer" : 0,
            "byteLength" : 960576,
            "byteOffset" : 125585080,
            "target" : 34962
        }
    ],
    "buffers" : [
        {
            "byteLength" : 126545656,
            "uri" : "corridorV1.bin"
        }
    ]
}
